<svg xmlns="http://www.w3.org/2000/svg" width="44" height="45" viewBox="0 0 44 45">
    <g fill="none" fill-rule="evenodd">
        <path fill="#F05562" d="M17.514 3.068l17.952 5.594v8.76l-5.94 1.928v-8.326L10.84 5.084z"/>
        <path fill="#434A54" fill-rule="nonzero" d="M43.63 7.299a.778.778 0 0 0-.244-.408.973.973 0 0 0-.177-.14.966.966 0 0 0-.113-.056c-.018-.01-6.989-2.227-20.912-6.65a.95.95 0 0 0-.574 0L.78 6.652a.944.944 0 0 0-.662.899V30.21c0 .412.268.776.662.9l7.315 2.466c.125.04.328-.51.612-1.646L2.01 29.52V8.242L8.323 6.24l17.705 5.618-4.134 1.311L6.082 8.154a.944.944 0 1 0-.574 1.8l15.44 4.897v11.221a.945.945 0 1 0 1.894 0l-.001-11.221 5.365-1.7v6.264a.945.945 0 0 0 1.23.9l2.21-.703a.944.944 0 1 0-.574-1.8l-.975.31v-5.57L34.988 11v5.57l-1.076.34a.944.944 0 1 0 .569 1.8l1.736-.55a.944.944 0 0 0 .663-.9v-6.864l4.896-1.553V29.52l-1.23.392a.944.944 0 1 0 .516 1.817l1.945-.618a.944.944 0 0 0 .663-.9V7.552a.941.941 0 0 0-.04-.253zm-14.478 3.568L11.447 5.249l3.662-1.162 17.705 5.617-3.662 1.163zm6.785-2.153L18.233 3.096l3.66-1.162L39.6 7.552l-3.662 1.162z"/>
        <path fill="#434A54" fill-rule="nonzero" d="M5.019 23.625a.88.88 0 0 0-.882.88v6.387c0 .486.395.88.882.88a.88.88 0 0 0 .882-.88v-6.388a.88.88 0 0 0-.882-.879zM5.018 21a.89.89 0 0 0-.623.258.885.885 0 0 0-.258.622c0 .23.094.457.258.621a.889.889 0 0 0 1.246 0 .886.886 0 0 0 .259-.621.885.885 0 0 0-.259-.622.89.89 0 0 0-.623-.258zM8.403 31.875a.89.89 0 0 0-.623.258.885.885 0 0 0-.259.622c0 .23.095.457.259.621a.889.889 0 0 0 1.246 0 .886.886 0 0 0 .258-.621.885.885 0 0 0-.258-.622.89.89 0 0 0-.623-.258z"/>
        <path fill="#55C6D9" fill-rule="nonzero" d="M37.043 20.051a.945.945 0 0 0-.947.944v9.843c-.005 4.69-3.817 8.491-8.521 8.496H16.213a.945.945 0 0 0-.947.945v1.962l-6.87-4.795 6.87-4.795v1.963c0 .521.424.944.947.944h8.521c3.136-.003 5.678-2.537 5.681-5.665v-.401a.945.945 0 0 0-.947-.944.945.945 0 0 0-.947.944v.401a3.782 3.782 0 0 1-3.787 3.777H17.16v-2.832a.945.945 0 0 0-1.49-.774l-9.467 6.609a.942.942 0 0 0 0 1.546l9.468 6.61a.948.948 0 0 0 1.489-.774v-2.832h10.415c5.749-.007 10.408-4.653 10.414-10.385v-9.843a.945.945 0 0 0-.946-.944z"/>
        <path fill="#F05562" d="M7.521 15.375h9.47v2.444L12.027 30H8.967l4.82-11.867H7.52z"/>
    </g>
</svg>
