<svg xmlns="http://www.w3.org/2000/svg" width="47" height="45" viewBox="0 0 47 45">
    <g fill="none" fill-rule="evenodd">
        <path fill="#F05562" fill-rule="nonzero" d="M13.233 44.037H4.856a1.75 1.75 0 0 1-1.745-1.754V27.984a1.75 1.75 0 0 1 1.745-1.754h8.377a1.75 1.75 0 0 1 1.745 1.754v14.299a1.75 1.75 0 0 1-1.745 1.754z"/>
        <path fill="#FFF" fill-rule="nonzero" d="M41.084 31.405h-2.731a2.1 2.1 0 0 0 2.094-2.105 2.1 2.1 0 0 0-2.094-2.105H23.219l.73-.94v-4.428L19.7 23.4l-4.723 4.76v12.896l2.407 2.11a3.513 3.513 0 0 0 2.316.873h16.492c1.174 0 2.163-.966 2.141-2.146a2.1 2.1 0 0 0-2.094-2.065h2.93c1.174 0 2.163-.966 2.141-2.146a2.1 2.1 0 0 0-2.094-2.065h1.867a2.1 2.1 0 0 0 2.094-2.105 2.1 2.1 0 0 0-2.094-2.106z"/>
        <path fill="#434A54" fill-rule="nonzero" d="M9.045 39.651a.876.876 0 0 0 0 1.755.876.876 0 0 0 0-1.755zM42.592 16.916a.876.876 0 0 0 0 1.754.875.875 0 0 0 .874-.877.875.875 0 0 0-.873-.877z"/>
        <path fill="#434A54" fill-rule="nonzero" d="M46.66 10.382a.87.87 0 0 0-.617-.257l-21.466.002a.875.875 0 0 0-.873.877v9.737c-1.21.428-2.373.941-3.489 1.54-1.096.589-1.737 1.12-2.05 1.434l-2.77 2.786a2.613 2.613 0 0 0-2.162-1.149H4.856a2.628 2.628 0 0 0-2.617 2.632v14.299a2.628 2.628 0 0 0 2.617 2.632h8.377a2.625 2.625 0 0 0 2.541-1.999l1.038.91a4.383 4.383 0 0 0 2.89 1.089h26.34a.875.875 0 0 0 .873-.877V11.003a.88.88 0 0 0-.255-.62zM13.233 43.16H4.856a.876.876 0 0 1-.872-.877V27.984c0-.484.391-.877.872-.877h3.316v10.105c0 .485.391.878.873.878a.875.875 0 0 0 .872-.878V27.107h3.316c.481 0 .873.393.873.877v14.299a.876.876 0 0 1-.873.877zm4.725-.656l-2.107-1.848V28.523l2.826-2.883c.8-.696 1.47-1.198 2.009-1.503 1.136-.644 2.141-1.093 3.016-1.346v2.358l-.846 2.262c.1.388.447.66.846.66h14.65c.675 0 1.223.552 1.223 1.229s-.548 1.228-1.222 1.228h-8.79a.875.875 0 0 0-.873.877c0 .485.39.878.872.878h11.522c.674 0 1.222.55 1.222 1.228 0 .677-.548 1.228-1.222 1.228H29.562a.875.875 0 0 0-.872.877c0 .485.39.877.872.877h9.655c.674 0 1.222.551 1.222 1.229 0 .677-.548 1.228-1.222 1.228h-9.655a.875.875 0 0 0-.872.877c0 .484.39.877.872.877h6.679c.673 0 1.221.551 1.221 1.228 0 .678-.548 1.229-1.221 1.229H19.7c-.64 0-1.26-.234-1.743-.657zm20.985.656a2.978 2.978 0 0 0 0-2.456h.274a2.978 2.978 0 0 0 2.967-2.983c0-.48-.114-.933-.315-1.335a2.985 2.985 0 0 0 1.596-4.652V20.615a.875.875 0 0 0-.872-.877.875.875 0 0 0-.873.877v9.983a2.953 2.953 0 0 0-.636-.07c.14-.375.236-.79.236-1.228a2.978 2.978 0 0 0-2.967-2.983H25.45V12.254l19.72-.001V43.16h-6.227z"/>
        <path fill="#434A54" d="M28.351 12h4.85v14.625h-4.85z"/>
        <path fill="#55C6D9" fill-rule="nonzero" d="M9.85 23.728a.93.93 0 0 1-1.422 0C2.943 17.243.187 12.455.187 9.188c0-4.971 4.008-9 8.952-9s8.952 4.029 8.952 9c0 3.267-2.756 8.055-8.242 14.54zm6.376-14.54c0-3.936-3.173-7.126-7.087-7.126-3.914 0-7.087 3.19-7.087 7.126 0 2.545 2.354 6.755 7.087 12.477 4.732-5.722 7.087-9.932 7.087-12.477z"/>
        <path fill="#55C6D9" fill-rule="nonzero" d="M9.139 13.594c-2.42 0-4.383-1.973-4.383-4.406 0-2.434 1.962-4.407 4.383-4.407 2.42 0 4.383 1.973 4.383 4.407 0 2.433-1.962 4.406-4.383 4.406zm0-1.688a2.712 2.712 0 0 0 2.704-2.719A2.712 2.712 0 0 0 9.14 6.47a2.712 2.712 0 0 0-2.704 2.718 2.712 2.712 0 0 0 2.704 2.72z"/>
    </g>
</svg>
